#!OML:ASF E:\Steps\Project 1\Capture day 1\Session 2\Subject.ASF
:FULLY-SPECIFIED
:DEGREES
899
root 26.484 16.1241 -8.44244 40.8846 85.4094 23.7923
lowerback -27.0341 -3.4167 -6.61292
upperback 1.12842 -2.10763 -0.896485
thorax 15.975 -1.37515 1.83811
lowerneck 4.80157 1.57041 -3.41378
upperneck -0.867204 2.02279 4.85912
head -1.18874 0.955 2.07211
rclavicle 3.94588e-014 3.97569e-015
rhumerus -41.8973 -34.7607 -65.2518
rradius 17.0031
rwrist 14.9055
rhand 30.4109 -62.5594
rfingers 7.12502
rthumb 54.076 -81.3459
lclavicle 3.94588e-014 3.97569e-015
lhumerus -16.697 -9.55865 81.1231
lradius 45.4094
lwrist 6.83142
lhand -24.7327 -11.9586
lfingers 7.12502
lthumb 1.76973 18.0138
rfemur -30.9292 14.4117 14.3138
rtibia 23.3192
rfoot -18.426 -2.05794
rtoes 4.12592
lfemur -24.8589 -9.11686 -22.2763
ltibia 17.1547
lfoot -6.43425 1.0994
ltoes -35.4933
900
root 26.5658 16.1175 -8.44083 42.3262 85.5544 25.3701
lowerback -27.2536 -3.30545 -6.45263
upperback 1.09369 -1.98138 -0.958817
thorax 16.024 -1.30189 1.72659
lowerneck 4.99894 1.65282 -3.64135
upperneck -1.09425 2.12507 5.00916
head -1.30744 1.00108 2.16036
rclavicle 2.16675e-014 1.66979e-014
rhumerus -43.1581 -36.6573 -63.5753
rradius 16.9533
rwrist 17.5137
rhand -4.46915 -53.7207
rfingers 7.12502
rthumb 21.3034 -82.5698
lclavicle 2.16675e-014 1.66979e-014
lhumerus -16.7562 -9.96726 81.2392
lradius 45.4887
lwrist 6.91624
lhand -24.5986 -12.1882
lfingers 7.12502
lthumb 1.89925 17.7831
rfemur -30.215 14.0008 14.2385
rtibia 23.4439
rfoot -19.1438 -0.326803
rtoes 13.2456
lfemur -24.3604 -9.32377 -22.4499
ltibia 17.1314
lfoot -6.60364 1.09394
ltoes -36.6717
901
root 26.6436 16.1149 -8.43752 43.4895 85.3992 26.7214
lowerback -27.3876 -3.21385 -6.49968
upperback 1.03726 -1.83411 -0.950432
thorax 16.0118 -1.23854 1.81704
lowerneck 5.20653 1.52432 -3.86112
upperneck -1.20741 1.94523 5.25277
head -1.38025 0.905471 2.28665
rclavicle -1.88845e-014 2.62396e-014
rhumerus -43.5413 -37.6923 -62.3743
rradius 15.9349
rwrist 19.3855
rhand -4.29796 -53.2221
rfingers 7.12502
rthumb 21.4678 -82.0526
lclavicle -1.88845e-014 2.62396e-014
lhumerus -16.8847 -9.67598 81.6782
lradius 45.4025
lwrist 6.68301
lhand -24.4858 -12.5432
lfingers 7.12502
lthumb 2.00819 17.4271
rfemur -29.4118 14.5699 14.1638
rtibia 22.8777
rfoot -19.2195 -1.09319
rtoes 12.0161
lfemur -23.6881 -9.54954 -22.7622
ltibia 16.9113
lfoot -6.71672 1.44401
ltoes -38.9886
902
root 26.7209 16.114 -8.43077 44.4812 85.1894 27.9053
lowerback -27.5437 -3.11423 -6.62578
upperback 0.988939 -1.64813 -0.939487
thorax 16.018 -1.1651 1.96807
lowerneck 6.26855 1.3918 -4.26809
upperneck -2.29681 1.75926 5.66655
head -1.93037 0.787662 2.51471
rclavicle -9.0447e-015 -2.0276e-014
rhumerus -43.8704 -38.5055 -61.3371
rradius 15.1212
rwrist 20.834
rhand -4.13868 -52.9468
rfingers 7.12502
rthumb 21.6208 -81.7597
lclavicle -9.0447e-015 -2.0276e-014
lhumerus -16.9969 -9.13754 82.2278
lradius 45.1008
lwrist 6.02969
lhand -24.3293 -13.1013
lfingers 7.12502
lthumb 2.15929 16.8676
rfemur -28.6397 13.747 14.2964
rtibia 22.2934
rfoot -18.8695 -0.607168
rtoes 11.3381
lfemur -23.0024 -9.98045 -23.0156
ltibia 16.6975
lfoot -6.80596 1.89303
ltoes -39.0908
903
root 26.7995 16.117 -8.42323 45.3973 85.191 28.9519
lowerback -27.7405 -3.0806 -6.63931
upperback 0.932414 -1.58499 -0.913657
thorax 16.0423 -1.13701 2.02467
lowerneck 6.00539 1.47817 -4.37467
upperneck -2.06287 1.86144 5.56563
head -1.8114 0.846235 2.49435
rclavicle -6.4605e-016 1.19271e-015
rhumerus -44.2202 -39.3447 -60.3198
rradius 14.4219
rwrist 22.3782
rhand -3.92773 -52.8774
rfingers 7.12502
rthumb 21.8234 -81.6669
lclavicle -6.4605e-016 1.19271e-015
lhumerus -17.1846 -8.77959 82.5445
lradius 44.8787
lwrist 5.64556
lhand -24.4419 -13.3071
lfingers 7.12502
lthumb 2.05056 16.6628
rfemur -27.8712 13.2025 14.4865
rtibia 21.6425
rfoot -18.4146 -0.0125556
rtoes 11.9569
lfemur -22.498 -10.1933 -23.1917
ltibia 16.68
lfoot -6.91064 2.16774
ltoes -41.3145
